<?xml version="1.0" encoding="UTF-8"?>
<svg width="64px" height="64px" viewBox="0 0 64 64" version="1.1" xmlns="http://www.w3.org/2000/svg" xmlns:xlink="http://www.w3.org/1999/xlink">
    <title>favicon</title>
    <g id="favicon" stroke="none" stroke-width="1" fill="none" fill-rule="evenodd">
        <path d="M10.2555408,-4.14336123e-16 L53.7444592,4.14336123e-16 C57.3105342,-2.4074122e-16 58.6036791,0.371302445 59.9073828,1.06853082 C61.2110865,1.76575919 62.2342408,2.78891348 62.9314692,4.09261719 C63.6286976,5.39632089 64,6.68946584 64,10.2555408 L64,53.7444592 C64,57.3105342 63.6286976,58.6036791 62.9314692,59.9073828 C62.2342408,61.2110865 61.2110865,62.2342408 59.9073828,62.9314692 C58.6036791,63.6286976 57.3105342,64 53.7444592,64 L10.2555408,64 C6.68946584,64 5.39632089,63.6286976 4.09261719,62.9314692 C2.78891348,62.2342408 1.76575919,61.2110865 1.06853082,59.9073828 C0.371302445,58.6036791 1.60494146e-16,57.3105342 -2.76224082e-16,53.7444592 L2.76224082e-16,10.2555408 C-1.60494146e-16,6.68946584 0.371302445,5.39632089 1.06853082,4.09261719 C1.76575919,2.78891348 2.78891348,1.76575919 4.09261719,1.06853082 C5.39632089,0.371302445 6.68946584,2.4074122e-16 10.2555408,-4.14336123e-16 Z" id="background" fill="#008CC4"></path>
        <g id="J" transform="translate(18, 12)" fill="#FFFFFF" fill-rule="nonzero">
            <path d="M28,25.0564972 C28,28.1073446 27.3736339,30.7532957 26.1209016,32.9943503 C24.8681694,35.2354049 23.0416667,36.9632768 20.6413934,38.1779661 C18.2411202,39.3926554 15.3674863,40 12.0204918,40 C9.57240437,40 7.41598361,39.6986817 5.55122951,39.0960452 C3.68647541,38.4934087 1.83606557,37.5706215 0,36.3276836 L3.58606557,30.6214689 C4.92486339,31.5254237 6.19193989,32.165725 7.38729508,32.5423729 C8.58265027,32.9190207 9.93579235,33.1073446 11.4467213,33.1073446 C13.5887978,33.1073446 15.3196721,32.4340866 16.6393443,31.0875706 C17.9590164,29.7410546 18.6188525,27.7683616 18.6188525,25.1694915 L18.6188525,6.77966102 L6.39754098,6.77966102 L6.39754098,0 L28,0 L28,25.0564972 Z" id="路径"></path>
        </g>
    </g>
</svg>